<mxfile host="app.diagrams.net" agent="Mozilla/5.0 (Windows NT 10.0; Win64; x64) AppleWebKit/537.36 (KHTML, like Gecko) Chrome/134.0.0.0 Safari/537.36" version="26.1.0">
  <diagram id="C5RBs43oDa-KdzZeNtuy" name="Page-1">
    <mxGraphModel dx="1750" dy="928" grid="1" gridSize="10" guides="1" tooltips="1" connect="1" arrows="1" fold="1" page="1" pageScale="1" pageWidth="827" pageHeight="1169" math="0" shadow="0">
      <root>
        <mxCell id="WIyWlLk6GJQsqaUBKTNV-0" />
        <mxCell id="WIyWlLk6GJQsqaUBKTNV-1" parent="WIyWlLk6GJQsqaUBKTNV-0" />
        <mxCell id="OMZq4bso78Xf7TwPa0Wj-1" value="Gestor dos pedidos" style="shape=umlActor;verticalLabelPosition=bottom;verticalAlign=top;html=1;outlineConnect=0;" vertex="1" parent="WIyWlLk6GJQsqaUBKTNV-1">
          <mxGeometry x="60" y="210" width="60" height="110" as="geometry" />
        </mxCell>
        <mxCell id="OMZq4bso78Xf7TwPa0Wj-2" value="Actor" style="shape=umlActor;verticalLabelPosition=bottom;verticalAlign=top;html=1;outlineConnect=0;" vertex="1" parent="WIyWlLk6GJQsqaUBKTNV-1">
          <mxGeometry x="70" y="1020" width="30" height="60" as="geometry" />
        </mxCell>
        <mxCell id="OMZq4bso78Xf7TwPa0Wj-5" value="Include, toda vez que uma ação tem UMA reação (basicamente algo obrigatorio)" style="text;html=1;align=center;verticalAlign=middle;whiteSpace=wrap;rounded=0;" vertex="1" parent="WIyWlLk6GJQsqaUBKTNV-1">
          <mxGeometry x="400" y="10" width="230" height="30" as="geometry" />
        </mxCell>
        <mxCell id="OMZq4bso78Xf7TwPa0Wj-6" value="Extend, ações que tem varias reações necessarias (varias opções de esolha)" style="text;html=1;align=center;verticalAlign=middle;whiteSpace=wrap;rounded=0;" vertex="1" parent="WIyWlLk6GJQsqaUBKTNV-1">
          <mxGeometry x="90" y="10" width="230" height="30" as="geometry" />
        </mxCell>
        <mxCell id="OMZq4bso78Xf7TwPa0Wj-8" value="" style="endArrow=none;dashed=1;html=1;dashPattern=1 3;strokeWidth=2;rounded=0;" edge="1" parent="WIyWlLk6GJQsqaUBKTNV-1">
          <mxGeometry width="50" height="50" relative="1" as="geometry">
            <mxPoint x="160" y="44.66" as="sourcePoint" />
            <mxPoint x="240" y="44.66" as="targetPoint" />
            <Array as="points" />
          </mxGeometry>
        </mxCell>
        <mxCell id="OMZq4bso78Xf7TwPa0Wj-9" value="" style="triangle;whiteSpace=wrap;html=1;rotation=-180;" vertex="1" parent="WIyWlLk6GJQsqaUBKTNV-1">
          <mxGeometry x="150" y="40" width="10" height="10" as="geometry" />
        </mxCell>
        <mxCell id="OMZq4bso78Xf7TwPa0Wj-11" value="" style="endArrow=none;dashed=1;html=1;dashPattern=1 3;strokeWidth=2;rounded=0;" edge="1" parent="WIyWlLk6GJQsqaUBKTNV-1">
          <mxGeometry width="50" height="50" relative="1" as="geometry">
            <mxPoint x="440" y="44.66" as="sourcePoint" />
            <mxPoint x="520" y="44.66" as="targetPoint" />
            <Array as="points">
              <mxPoint x="480" y="45" />
            </Array>
          </mxGeometry>
        </mxCell>
        <mxCell id="OMZq4bso78Xf7TwPa0Wj-12" value="" style="triangle;whiteSpace=wrap;html=1;rotation=0;" vertex="1" parent="WIyWlLk6GJQsqaUBKTNV-1">
          <mxGeometry x="520" y="40" width="10" height="10" as="geometry" />
        </mxCell>
        <mxCell id="OMZq4bso78Xf7TwPa0Wj-18" value="Criar pedidos de clientes" style="ellipse;whiteSpace=wrap;html=1;" vertex="1" parent="WIyWlLk6GJQsqaUBKTNV-1">
          <mxGeometry x="315" y="200" width="140" height="90" as="geometry" />
        </mxCell>
        <mxCell id="OMZq4bso78Xf7TwPa0Wj-25" value="&lt;span style=&quot;font-size:11.0pt;line-height:&lt;br/&gt;115%;font-family:&amp;quot;Cambria&amp;quot;,serif;mso-ascii-theme-font:minor-latin;mso-fareast-font-family:&lt;br/&gt;&amp;quot;MS Mincho&amp;quot;;mso-fareast-theme-font:minor-fareast;mso-hansi-theme-font:minor-latin;&lt;br/&gt;mso-bidi-font-family:&amp;quot;Times New Roman&amp;quot;;mso-bidi-theme-font:minor-bidi;&lt;br/&gt;mso-ansi-language:EN-US;mso-fareast-language:EN-US;mso-bidi-language:AR-SA&quot; lang=&quot;EN-US&quot;&gt;Excluir pedidos antes da confirmação&lt;/span&gt;" style="ellipse;whiteSpace=wrap;html=1;" vertex="1" parent="WIyWlLk6GJQsqaUBKTNV-1">
          <mxGeometry x="310" y="100" width="150" height="90" as="geometry" />
        </mxCell>
        <mxCell id="OMZq4bso78Xf7TwPa0Wj-26" value="&lt;span style=&quot;font-size:11.0pt;line-height:&lt;br/&gt;115%;font-family:&amp;quot;Cambria&amp;quot;,serif;mso-ascii-theme-font:minor-latin;mso-fareast-font-family:&lt;br/&gt;&amp;quot;MS Mincho&amp;quot;;mso-fareast-theme-font:minor-fareast;mso-hansi-theme-font:minor-latin;&lt;br/&gt;mso-bidi-font-family:&amp;quot;Times New Roman&amp;quot;;mso-bidi-theme-font:minor-bidi;&lt;br/&gt;mso-ansi-language:EN-US;mso-fareast-language:EN-US;mso-bidi-language:AR-SA&quot; lang=&quot;EN-US&quot;&gt;Apresentar&amp;nbsp;pedido para o cliente&lt;/span&gt;" style="ellipse;whiteSpace=wrap;html=1;" vertex="1" parent="WIyWlLk6GJQsqaUBKTNV-1">
          <mxGeometry x="315" y="300" width="140" height="90" as="geometry" />
        </mxCell>
        <mxCell id="OMZq4bso78Xf7TwPa0Wj-30" value="" style="endArrow=open;endFill=1;endSize=12;html=1;rounded=0;entryX=0.059;entryY=0.713;entryDx=0;entryDy=0;entryPerimeter=0;" edge="1" parent="WIyWlLk6GJQsqaUBKTNV-1" target="OMZq4bso78Xf7TwPa0Wj-25">
          <mxGeometry width="160" relative="1" as="geometry">
            <mxPoint x="140" y="220" as="sourcePoint" />
            <mxPoint x="300" y="170" as="targetPoint" />
          </mxGeometry>
        </mxCell>
        <mxCell id="OMZq4bso78Xf7TwPa0Wj-31" value="&lt;span style=&quot;font-family: Cambria, serif; font-size: 14.6667px;&quot;&gt;Editar pedidos antes da confirmação&lt;/span&gt;" style="ellipse;whiteSpace=wrap;html=1;" vertex="1" parent="WIyWlLk6GJQsqaUBKTNV-1">
          <mxGeometry x="300" y="400" width="150" height="80" as="geometry" />
        </mxCell>
        <mxCell id="OMZq4bso78Xf7TwPa0Wj-32" value="" style="endArrow=open;endFill=1;endSize=12;html=1;rounded=0;entryX=0;entryY=0.5;entryDx=0;entryDy=0;" edge="1" parent="WIyWlLk6GJQsqaUBKTNV-1" target="OMZq4bso78Xf7TwPa0Wj-18">
          <mxGeometry width="160" relative="1" as="geometry">
            <mxPoint x="140" y="264.5" as="sourcePoint" />
            <mxPoint x="300" y="250" as="targetPoint" />
          </mxGeometry>
        </mxCell>
        <mxCell id="OMZq4bso78Xf7TwPa0Wj-33" value="" style="endArrow=open;endFill=1;endSize=12;html=1;rounded=0;entryX=0;entryY=0.5;entryDx=0;entryDy=0;" edge="1" parent="WIyWlLk6GJQsqaUBKTNV-1" target="OMZq4bso78Xf7TwPa0Wj-26">
          <mxGeometry width="160" relative="1" as="geometry">
            <mxPoint x="130" y="300" as="sourcePoint" />
            <mxPoint x="290" y="330" as="targetPoint" />
          </mxGeometry>
        </mxCell>
        <mxCell id="OMZq4bso78Xf7TwPa0Wj-34" value="" style="endArrow=open;endFill=1;endSize=12;html=1;rounded=0;entryX=0.045;entryY=0.643;entryDx=0;entryDy=0;entryPerimeter=0;" edge="1" parent="WIyWlLk6GJQsqaUBKTNV-1" target="OMZq4bso78Xf7TwPa0Wj-31">
          <mxGeometry width="160" relative="1" as="geometry">
            <mxPoint x="125" y="340" as="sourcePoint" />
            <mxPoint x="280" y="430" as="targetPoint" />
          </mxGeometry>
        </mxCell>
        <mxCell id="OMZq4bso78Xf7TwPa0Wj-35" value="Gestor do estoque" style="shape=umlActor;verticalLabelPosition=bottom;verticalAlign=top;html=1;outlineConnect=0;" vertex="1" parent="WIyWlLk6GJQsqaUBKTNV-1">
          <mxGeometry x="660" y="240" width="60" height="110" as="geometry" />
        </mxCell>
        <mxCell id="OMZq4bso78Xf7TwPa0Wj-37" value="&lt;span style=&quot;font-size:11.0pt;line-height:115%;&lt;br/&gt;font-family:&amp;quot;Cambria&amp;quot;,serif;mso-ascii-theme-font:minor-latin;mso-fareast-font-family:&lt;br/&gt;&amp;quot;MS Mincho&amp;quot;;mso-fareast-theme-font:minor-fareast;mso-hansi-theme-font:minor-latin;&lt;br/&gt;mso-bidi-font-family:&amp;quot;Times New Roman&amp;quot;;mso-bidi-theme-font:minor-bidi;&lt;br/&gt;mso-ansi-language:PT-BR;mso-fareast-language:EN-US;mso-bidi-language:AR-SA&quot;&gt;Monitorar&lt;br/&gt;a quantidade de ingredientes e produtos disponíveis.&lt;/span&gt;" style="ellipse;whiteSpace=wrap;html=1;" vertex="1" parent="WIyWlLk6GJQsqaUBKTNV-1">
          <mxGeometry x="827" y="110" width="230" height="100" as="geometry" />
        </mxCell>
        <mxCell id="OMZq4bso78Xf7TwPa0Wj-39" value="&lt;span style=&quot;font-size:11.0pt;line-height:115%;&lt;br/&gt;font-family:&amp;quot;Cambria&amp;quot;,serif;mso-ascii-theme-font:minor-latin;mso-fareast-font-family:&lt;br/&gt;&amp;quot;MS Mincho&amp;quot;;mso-fareast-theme-font:minor-fareast;mso-hansi-theme-font:minor-latin;&lt;br/&gt;mso-bidi-font-family:&amp;quot;Times New Roman&amp;quot;;mso-bidi-theme-font:minor-bidi;&lt;br/&gt;mso-ansi-language:PT-BR;mso-fareast-language:EN-US;mso-bidi-language:AR-SA&quot;&gt;Alertar&lt;br/&gt;o administrador sobre a necessidade de reposição de ingredientes&lt;/span&gt;" style="ellipse;whiteSpace=wrap;html=1;" vertex="1" parent="WIyWlLk6GJQsqaUBKTNV-1">
          <mxGeometry x="855" y="255" width="190" height="80" as="geometry" />
        </mxCell>
        <mxCell id="OMZq4bso78Xf7TwPa0Wj-40" value="&lt;span style=&quot;font-size:11.0pt;line-height:115%;&lt;br/&gt;font-family:&amp;quot;Cambria&amp;quot;,serif;mso-ascii-theme-font:minor-latin;mso-fareast-font-family:&lt;br/&gt;&amp;quot;MS Mincho&amp;quot;;mso-fareast-theme-font:minor-fareast;mso-hansi-theme-font:minor-latin;&lt;br/&gt;mso-bidi-font-family:&amp;quot;Times New Roman&amp;quot;;mso-bidi-theme-font:minor-bidi;&lt;br/&gt;mso-ansi-language:PT-BR;mso-fareast-language:EN-US;mso-bidi-language:AR-SA&quot;&gt;Registrar&lt;br&gt;vendas&lt;/span&gt;" style="ellipse;whiteSpace=wrap;html=1;" vertex="1" parent="WIyWlLk6GJQsqaUBKTNV-1">
          <mxGeometry x="250" y="580" width="180" height="80" as="geometry" />
        </mxCell>
        <mxCell id="OMZq4bso78Xf7TwPa0Wj-41" value="&lt;span style=&quot;font-size:11.0pt;line-height:115%;&lt;br/&gt;font-family:&amp;quot;Cambria&amp;quot;,serif;mso-ascii-theme-font:minor-latin;mso-fareast-font-family:&lt;br/&gt;&amp;quot;MS Mincho&amp;quot;;mso-fareast-theme-font:minor-fareast;mso-hansi-theme-font:minor-latin;&lt;br/&gt;mso-bidi-font-family:&amp;quot;Times New Roman&amp;quot;;mso-bidi-theme-font:minor-bidi;&lt;br/&gt;mso-ansi-language:PT-BR;mso-fareast-language:EN-US;mso-bidi-language:AR-SA&quot;&gt;Registrar&lt;br/&gt;entradas e saídas de produtos&lt;/span&gt;" style="ellipse;whiteSpace=wrap;html=1;" vertex="1" parent="WIyWlLk6GJQsqaUBKTNV-1">
          <mxGeometry x="870" y="380" width="160" height="80" as="geometry" />
        </mxCell>
        <mxCell id="OMZq4bso78Xf7TwPa0Wj-42" value="" style="endArrow=open;endFill=1;endSize=12;html=1;rounded=0;entryX=0.02;entryY=0.422;entryDx=0;entryDy=0;entryPerimeter=0;" edge="1" parent="WIyWlLk6GJQsqaUBKTNV-1" target="OMZq4bso78Xf7TwPa0Wj-41">
          <mxGeometry width="160" relative="1" as="geometry">
            <mxPoint x="730" y="330" as="sourcePoint" />
            <mxPoint x="840" y="410" as="targetPoint" />
          </mxGeometry>
        </mxCell>
        <mxCell id="OMZq4bso78Xf7TwPa0Wj-44" value="" style="endArrow=open;endFill=1;endSize=12;html=1;rounded=0;entryX=0;entryY=0.5;entryDx=0;entryDy=0;" edge="1" parent="WIyWlLk6GJQsqaUBKTNV-1" target="OMZq4bso78Xf7TwPa0Wj-39">
          <mxGeometry width="160" relative="1" as="geometry">
            <mxPoint x="740" y="300" as="sourcePoint" />
            <mxPoint x="840" y="300" as="targetPoint" />
          </mxGeometry>
        </mxCell>
        <mxCell id="OMZq4bso78Xf7TwPa0Wj-45" value="" style="endArrow=open;endFill=1;endSize=12;html=1;rounded=0;entryX=0.076;entryY=0.726;entryDx=0;entryDy=0;entryPerimeter=0;" edge="1" parent="WIyWlLk6GJQsqaUBKTNV-1" target="OMZq4bso78Xf7TwPa0Wj-37">
          <mxGeometry width="160" relative="1" as="geometry">
            <mxPoint x="730" y="270" as="sourcePoint" />
            <mxPoint x="840" y="350" as="targetPoint" />
          </mxGeometry>
        </mxCell>
        <mxCell id="OMZq4bso78Xf7TwPa0Wj-46" value="Vendedor" style="shape=umlActor;verticalLabelPosition=bottom;verticalAlign=top;html=1;outlineConnect=0;" vertex="1" parent="WIyWlLk6GJQsqaUBKTNV-1">
          <mxGeometry x="60" y="630" width="60" height="110" as="geometry" />
        </mxCell>
        <mxCell id="OMZq4bso78Xf7TwPa0Wj-49" value="&lt;span style=&quot;font-size:11.0pt;line-height:115%;&lt;br/&gt;font-family:&amp;quot;Cambria&amp;quot;,serif;mso-ascii-theme-font:minor-latin;mso-fareast-font-family:&lt;br/&gt;&amp;quot;MS Mincho&amp;quot;;mso-fareast-theme-font:minor-fareast;mso-hansi-theme-font:minor-latin;&lt;br/&gt;mso-bidi-font-family:&amp;quot;Times New Roman&amp;quot;;mso-bidi-theme-font:minor-bidi;&lt;br/&gt;mso-ansi-language:PT-BR;mso-fareast-language:EN-US;mso-bidi-language:AR-SA&quot;&gt;Oferecer&lt;br/&gt;diferentes métodos de pagamento, incluindo dinheiro, cartão e PIX&lt;/span&gt;" style="ellipse;whiteSpace=wrap;html=1;" vertex="1" parent="WIyWlLk6GJQsqaUBKTNV-1">
          <mxGeometry x="855" y="680" width="240" height="90" as="geometry" />
        </mxCell>
        <mxCell id="OMZq4bso78Xf7TwPa0Wj-50" value="&lt;span style=&quot;font-size:11.0pt;line-height:115%;&lt;br/&gt;font-family:&amp;quot;Cambria&amp;quot;,serif;mso-ascii-theme-font:minor-latin;mso-fareast-font-family:&lt;br/&gt;&amp;quot;MS Mincho&amp;quot;;mso-fareast-theme-font:minor-fareast;mso-hansi-theme-font:minor-latin;&lt;br/&gt;mso-bidi-font-family:&amp;quot;Times New Roman&amp;quot;;mso-bidi-theme-font:minor-bidi;&lt;br/&gt;mso-ansi-language:PT-BR;mso-fareast-language:EN-US;mso-bidi-language:AR-SA&quot;&gt;Permitir&lt;br/&gt;a emissão de nota fiscal eletrônica&lt;/span&gt;" style="ellipse;whiteSpace=wrap;html=1;" vertex="1" parent="WIyWlLk6GJQsqaUBKTNV-1">
          <mxGeometry x="250" y="710" width="190" height="80" as="geometry" />
        </mxCell>
        <mxCell id="OMZq4bso78Xf7TwPa0Wj-51" value="" style="endArrow=open;endFill=1;endSize=12;html=1;rounded=0;entryX=0.05;entryY=0.696;entryDx=0;entryDy=0;entryPerimeter=0;" edge="1" parent="WIyWlLk6GJQsqaUBKTNV-1" target="OMZq4bso78Xf7TwPa0Wj-40">
          <mxGeometry width="160" relative="1" as="geometry">
            <mxPoint x="140" y="660" as="sourcePoint" />
            <mxPoint x="300" y="660" as="targetPoint" />
          </mxGeometry>
        </mxCell>
        <mxCell id="OMZq4bso78Xf7TwPa0Wj-52" value="" style="endArrow=open;endFill=1;endSize=12;html=1;rounded=0;entryX=0.01;entryY=0.62;entryDx=0;entryDy=0;entryPerimeter=0;" edge="1" parent="WIyWlLk6GJQsqaUBKTNV-1" target="OMZq4bso78Xf7TwPa0Wj-49">
          <mxGeometry width="160" relative="1" as="geometry">
            <mxPoint x="760" y="720" as="sourcePoint" />
            <mxPoint x="310" y="730" as="targetPoint" />
          </mxGeometry>
        </mxCell>
        <mxCell id="OMZq4bso78Xf7TwPa0Wj-53" value="" style="endArrow=open;endFill=1;endSize=12;html=1;rounded=0;entryX=0;entryY=0.5;entryDx=0;entryDy=0;" edge="1" parent="WIyWlLk6GJQsqaUBKTNV-1" target="OMZq4bso78Xf7TwPa0Wj-50">
          <mxGeometry width="160" relative="1" as="geometry">
            <mxPoint x="140" y="760" as="sourcePoint" />
            <mxPoint x="300" y="760" as="targetPoint" />
          </mxGeometry>
        </mxCell>
        <mxCell id="OMZq4bso78Xf7TwPa0Wj-54" value="Atendente/Caixa" style="shape=umlActor;verticalLabelPosition=bottom;verticalAlign=top;html=1;outlineConnect=0;" vertex="1" parent="WIyWlLk6GJQsqaUBKTNV-1">
          <mxGeometry x="690" y="630" width="60" height="110" as="geometry" />
        </mxCell>
        <mxCell id="OMZq4bso78Xf7TwPa0Wj-55" value="&lt;span style=&quot;font-size:11.0pt;line-height:115%;&lt;br/&gt;font-family:&amp;quot;Cambria&amp;quot;,serif;mso-ascii-theme-font:minor-latin;mso-fareast-font-family:&lt;br/&gt;&amp;quot;MS Mincho&amp;quot;;mso-fareast-theme-font:minor-fareast;mso-hansi-theme-font:minor-latin;&lt;br/&gt;mso-bidi-font-family:&amp;quot;Times New Roman&amp;quot;;mso-bidi-theme-font:minor-bidi;&lt;br/&gt;mso-ansi-language:PT-BR;mso-fareast-language:EN-US;mso-bidi-language:AR-SA&quot;&gt;Permitir&lt;br/&gt;o cadastro e a atualização de dados dos clientes&lt;/span&gt;" style="ellipse;whiteSpace=wrap;html=1;" vertex="1" parent="WIyWlLk6GJQsqaUBKTNV-1">
          <mxGeometry x="870" y="570" width="160" height="100" as="geometry" />
        </mxCell>
        <mxCell id="OMZq4bso78Xf7TwPa0Wj-56" value="&lt;span style=&quot;font-size:11.0pt;line-height:115%;&lt;br/&gt;font-family:&amp;quot;Cambria&amp;quot;,serif;mso-ascii-theme-font:minor-latin;mso-fareast-font-family:&lt;br/&gt;&amp;quot;MS Mincho&amp;quot;;mso-fareast-theme-font:minor-fareast;mso-hansi-theme-font:minor-latin;&lt;br/&gt;mso-bidi-font-family:&amp;quot;Times New Roman&amp;quot;;mso-bidi-theme-font:minor-bidi;&lt;br/&gt;mso-ansi-language:PT-BR;mso-fareast-language:EN-US;mso-bidi-language:AR-SA&quot;&gt;Oferecer&lt;br/&gt;promoções personalizadas&lt;/span&gt;" style="ellipse;whiteSpace=wrap;html=1;" vertex="1" parent="WIyWlLk6GJQsqaUBKTNV-1">
          <mxGeometry x="890" y="790" width="148" height="80" as="geometry" />
        </mxCell>
        <mxCell id="OMZq4bso78Xf7TwPa0Wj-57" value="" style="endArrow=open;endFill=1;endSize=12;html=1;rounded=0;entryX=0.032;entryY=0.602;entryDx=0;entryDy=0;entryPerimeter=0;" edge="1" parent="WIyWlLk6GJQsqaUBKTNV-1" target="OMZq4bso78Xf7TwPa0Wj-55">
          <mxGeometry width="160" relative="1" as="geometry">
            <mxPoint x="770" y="680" as="sourcePoint" />
            <mxPoint x="930" y="680" as="targetPoint" />
          </mxGeometry>
        </mxCell>
        <mxCell id="OMZq4bso78Xf7TwPa0Wj-58" value="" style="endArrow=open;endFill=1;endSize=12;html=1;rounded=0;entryX=0;entryY=0.5;entryDx=0;entryDy=0;" edge="1" parent="WIyWlLk6GJQsqaUBKTNV-1" target="OMZq4bso78Xf7TwPa0Wj-56">
          <mxGeometry width="160" relative="1" as="geometry">
            <mxPoint x="770" y="760" as="sourcePoint" />
            <mxPoint x="930" y="760" as="targetPoint" />
          </mxGeometry>
        </mxCell>
      </root>
    </mxGraphModel>
  </diagram>
</mxfile>
